<?xml version="1.0" encoding="UTF-8" standalone="no"?>
<svg width="92px" height="91px" viewBox="0 0 92 91" version="1.1" xmlns="http://www.w3.org/2000/svg" xmlns:xlink="http://www.w3.org/1999/xlink">
    <!-- Generator: sketchtool 41.1 (35376) - http://www.bohemiancoding.com/sketch -->
    <title>FFFB5450-DC47-44B7-9856-F5962EB4B3E1</title>
    <desc>Created with sketchtool.</desc>
    <defs></defs>
    <g id="Website" stroke="none" stroke-width="1" fill="none" fill-rule="evenodd">
        <g id="Services" transform="translate(-672.000000, -625.000000)" stroke-width="3.616" stroke="#E2900A">
            <g id="Sec3" transform="translate(561.000000, 601.000000)">
                <g id="bullish" transform="translate(113.666667, 26.000000)">
                    <g id="Layer_1">
                        <polyline id="Shape" points="86.8571429 18.1464841 86.8571429 0 68.7619048 0"></polyline>
                        <polyline id="Shape" points="0 58.068749 23.5238095 34.4783197 30.7619048 41.7369133 52.4761905 19.9611325 59.7142857 27.2197261 86.8571429 0"></polyline>
                        <path d="M86.8571429,88.9177719 L86.8571429,25.4050777" id="Shape"></path>
                        <path d="M76,88.9177719 L76,23.5904293" id="Shape"></path>
                        <path d="M65.1428571,88.9177719 L65.1428571,34.4783197" id="Shape"></path>
                        <path d="M54.2857143,88.9177719 L54.2857143,34.4783197" id="Shape"></path>
                        <path d="M43.4285714,88.9177719 L43.4285714,41.7369133" id="Shape"></path>
                        <path d="M32.5714286,88.9177719 L32.5714286,52.6248038" id="Shape"></path>
                        <path d="M21.7142857,88.9177719 L21.7142857,48.995507" id="Shape"></path>
                        <path d="M10.8571429,88.9177719 L10.8571429,59.8833974" id="Shape"></path>
                        <path d="M0,88.9177719 L0,67.141991" id="Shape"></path>
                    </g>
                </g>
            </g>
        </g>
    </g>
</svg>