<?xml version="1.0" encoding="UTF-8" standalone="no"?>
<svg width="97px" height="74px" viewBox="0 0 97 74" version="1.1" xmlns="http://www.w3.org/2000/svg" xmlns:xlink="http://www.w3.org/1999/xlink">
    <!-- Generator: sketchtool 41.1 (35376) - http://www.bohemiancoding.com/sketch -->
    <title>46822E86-84EB-40D3-B378-B08573C18AD1</title>
    <desc>Created with sketchtool.</desc>
    <defs></defs>
    <g id="Website" stroke="none" stroke-width="1" fill="none" fill-rule="evenodd">
        <g id="Services" transform="translate(-1027.000000, -638.000000)" stroke="#3D95D4">
            <g id="Sec2" transform="translate(912.000000, 601.000000)">
                <g id="opera_glasses" transform="translate(117.000000, 39.000000)">
                    <g id="Layer_1">
                        <g id="Group" transform="translate(0.000000, 32.918182)" stroke-width="3.86912019">
                            <path d="M18.2384828,0 C8.25531327,0 0,8.32636364 0,18.3954545 C0,28.4645455 8.25531327,36.7909091 18.2384828,36.7909091 C28.2216523,36.7909091 36.4769656,28.4645455 36.4769656,18.3954545 C36.4769656,8.32636364 28.2216523,0 18.2384828,0 L18.2384828,0 L18.2384828,0 Z" id="Shape"></path>
                        </g>
                        <g id="Group" transform="translate(55.675369, 32.918182)" stroke-width="3.86912019">
                            <path d="M18.2384828,0 C8.25531327,0 0,8.32636364 0,18.3954545 C0,28.4645455 8.25531327,36.7909091 18.2384828,36.7909091 C28.2216523,36.7909091 36.4769656,28.4645455 36.4769656,18.3954545 C36.4769656,8.32636364 28.2216523,0 18.2384828,0 L18.2384828,0 L18.2384828,0 Z" id="Shape"></path>
                        </g>
                        <g id="Group" transform="translate(63.354730, 51.206061)" stroke-width="3.86912019">
                            <path d="M0,0.107575758 C0,5.91666667 4.79960074,10.7575758 10.5591216,10.7575758" id="Shape"></path>
                        </g>
                        <g id="Group" transform="translate(7.679361, 51.206061)" stroke-width="3.86912019">
                            <path d="M0,0.107575758 C0,5.91666667 4.79960074,10.7575758 10.5591216,10.7575758" id="Shape"></path>
                        </g>
                        <g id="Group" transform="translate(36.476966, 34.854545)" stroke-width="3.67198852">
                            <path d="M9.59920147,0 C4.22364865,0 0,4.26 0,9.68181818 C0,15.1036364 4.22364865,19.3636364 9.59920147,19.3636364 C14.9747543,19.3636364 19.1984029,15.1036364 19.1984029,9.68181818 C19.1984029,4.26 14.9747543,0 9.59920147,0 L9.59920147,0 L9.59920147,0 Z" id="Shape"></path>
                        </g>
                        <g id="Group" transform="translate(57.595209, 0.000000)" stroke-width="3.86912019">
                            <path d="M0,7.74545455 C0,3.48545455 3.45571253,0 7.67936118,0 C11.9030098,0 15.3587224,3.48545455 15.3587224,7.74545455" id="Shape"></path>
                        </g>
                        <g id="Group" transform="translate(19.198403, 0.000000)" stroke-width="3.86912019">
                            <path d="M0,7.74545455 C0,3.48545455 3.45571253,0 7.67936118,0 C11.9030098,0 15.3587224,3.48545455 15.3587224,7.74545455" id="Shape"></path>
                        </g>
                        <path d="M90.0405098,42.6 L78.9054361,13.5545455 C77.5615479,10.0690909 74.2978194,7.74545455 70.6501229,7.74545455 L51.835688,7.74545455 C51.835688,4.45363636 49.3398956,1.93636364 46.0761671,1.93636364 C42.8124386,1.93636364 40.3166462,4.45363636 40.3166462,7.74545455 L21.5022113,7.74545455 C17.8545147,7.74545455 14.5907862,10.0690909 13.246898,13.5545455 L2.30380835,42.6" id="Shape" stroke-width="3.86912019"></path>
                        <path d="M51.835688,7.74545455 L55.6753686,44.5363636" id="Shape" stroke-width="3.86912019"></path>
                        <path d="M40.3166462,7.74545455 L36.4769656,44.5363636" id="Shape" stroke-width="3.86912019"></path>
                    </g>
                </g>
            </g>
        </g>
    </g>
</svg>